Coordinates
version=1
nRows=14
nColumns=24
inDegrees=yes

Units are S.I. units (second, meters, Newtons, ...)
Angles are in degrees.

endheader
time	pelvis_tilt	pelvis_list	pelvis_rotation	pelvis_tx	pelvis_ty	pelvis_tz	hip_flexion_r	hip_adduction_r	hip_rotation_r	knee_angle_r	ankle_angle_r	subtalar_angle_r	mtp_angle_r	hip_flexion_l	hip_adduction_l	hip_rotation_l	knee_angle_l	ankle_angle_l	subtalar_angle_l	mtp_angle_l	lumbar_extension	lumbar_bending	lumbar_rotation
      5.47000000	     -0.42425093	     -5.08723361	     -3.71334931	      1.94506228	      0.70706867	     -0.39551151	      5.06324198	     11.59083820	     16.26509251	     -8.30529690	     10.83327728	    -14.18751206	      0.00000000	     27.24586353	     -3.31811467	     -2.16380559	    -69.37671522	      4.05198240	     -8.31098243	      0.00000000	    -17.44735453	      5.15920475	     -0.83026208
      5.48000000	     -0.54634069	     -4.63421735	     -4.06111527	      1.95484230	      0.70795721	     -0.39505971	      3.85817971	     10.97206133	     17.00883212	     -7.45701537	     11.10261093	    -14.32465937	      0.00000000	     28.40935999	     -3.13595916	     -2.66395314	    -67.53759193	      4.82412195	     -8.23132666	      0.00000000	    -17.45632509	      4.51601070	     -0.42907906
      5.49000000	     -0.57120229	     -4.27447325	     -4.36129285	      1.96458129	      0.70862798	     -0.39473070	      2.55812995	     10.42361332	     17.81470160	     -6.60058680	     11.30086205	    -14.69681339	      0.00000000	     29.32216675	     -3.02080991	     -3.09877326	    -65.35447990	      5.46348108	     -8.21606551	      0.00000000	    -17.63845367	      4.00551930	     -0.05722251
      5.50000000	     -0.77371067	     -4.02530336	     -4.74308195	      1.97427312	      0.70880095	     -0.39434418	      1.55802557	     10.01935939	     18.33177880	     -5.92839282	     11.68610543	    -14.65072942	      0.00000000	     30.27885222	     -3.08696697	     -3.57430709	    -62.86000046	      5.97691715	     -8.19165837	      0.00000000	    -17.63199805	      3.63794548	      0.34938871
      5.51000000	     -0.88658137	     -3.84825526	     -5.11314360	      1.98390822	      0.70881767	     -0.39407937	      0.50433993	      9.67373221	     18.89494030	     -5.32948077	     12.09069256	    -14.68324332	      0.00000000	     30.94353464	     -3.17880881	     -3.97587360	    -59.96291429	      6.41916245	     -8.24100153	      0.00000000	    -17.78957066	      3.37114478	      0.77321659
      5.52000000	     -1.01000030	     -3.74266981	     -5.44559140	      1.99354621	      0.70857966	     -0.39390025	     -0.48837472	      9.40580740	     19.38386784	     -4.82409194	     12.53523757	    -14.70316957	      0.00000000	     31.42962206	     -3.30712869	     -4.28974557	    -56.68159862	      6.79297242	     -8.29531522	      0.00000000	    -17.95672620	      3.21497776	      1.11093930
      5.53000000	     -1.02049910	     -3.67588524	     -5.70836461	      2.00318048	      0.70826579	     -0.39384013	     -1.56966042	      9.16694950	     19.81743675	     -4.37393373	     13.01334686	    -14.78578128	      0.00000000	     31.56593329	     -3.39435767	     -4.47399389	    -52.95293310	      7.13076031	     -8.35836031	      0.00000000	    -18.28653032	      3.10650529	      1.35460497
      5.54000000	     -1.27346732	     -3.66321292	     -6.00673429	      2.01279895	      0.70748118	     -0.39379369	     -2.29062340	      9.03069921	     20.20413520	     -4.12621955	     13.60074779	    -14.73279842	      0.00000000	     31.73977153	     -3.53587839	     -4.58308339	    -48.80673293	      7.32743823	     -8.57479358	      0.00000000	    -18.30814666	      3.10430113	      1.57854831
      5.55000000	     -1.33801135	     -3.65848347	     -6.27678361	      2.02235143	      0.70680159	     -0.39387488	     -3.15347277	      8.88541660	     20.52865029	     -3.98297308	     14.26612617	    -14.61538964	      0.00000000	     31.40762199	     -3.57505779	     -4.49104209	    -44.11420768	      7.37440426	     -9.00949319	      0.00000000	    -18.61545618	      3.09175847	      1.85786093
      5.56000000	     -1.35502577	     -3.68673325	     -6.50382668	      2.03198933	      0.70604491	     -0.39402441	     -4.02791097	      8.78143506	     20.74983539	     -3.93607168	     14.97165970	    -14.42100356	      0.00000000	     30.71279081	     -3.57150981	     -4.15088698	    -38.90858705	      7.22702167	     -9.66973664	      0.00000000	    -18.96656103	      3.12386510	      2.01246026
      5.57000000	     -1.33683005	     -3.77832951	     -6.73010878	      2.04175440	      0.70514644	     -0.39419728	     -4.90613858	      8.75614237	     20.88504523	     -3.99446755	     15.75842390	    -14.15918906	      0.00000000	     29.65095951	     -3.58108099	     -3.52511131	    -33.20736894	      6.77213241	    -10.85381638	      0.00000000	    -19.32955944	      3.22249589	      2.17465687
      5.58000000	     -1.29795280	     -3.92858120	     -6.96572800	      2.05178054	      0.70407624	     -0.39435183	     -5.80431617	      8.79842388	     20.96233454	     -4.12284571	     16.58998469	    -13.84123370	      0.00000000	     28.22656287	     -3.62523940	     -2.48950785	    -27.05639514	      5.81654499	    -12.75911821	      0.00000000	    -19.64721278	      3.37360244	      2.33753185
      5.59000000	     -1.17731255	     -4.28881150	     -7.30386607	      2.06199628	      0.70285168	     -0.39435787	     -6.79566488	      9.05651361	     21.12171182	     -4.36204933	     17.42433334	    -13.43465012	      0.00000000	     26.42828056	     -3.95608552	     -1.04320057	    -20.64063901	      4.25601218	    -15.60565549	      0.00000000	    -20.04937028	      3.72311755	      2.69972380
      5.60000000	     -1.12689286	     -4.87650354	     -7.69446382	      2.07249986	      0.70121902	     -0.39408427	     -7.74629660	      9.58514840	     21.38920336	     -4.68992941	     18.19490715	    -13.10703451	      0.00000000	     24.57247171	     -4.69201038	      0.60270609	    -14.29004088	      2.17354217	    -19.09534445	      0.00000000	    -20.30028193	      4.28051529	      3.18146937
